<svg height="480pt" viewBox="0 -44 480 480" width="480pt" xmlns="http://www.w3.org/2000/svg"><path d="m152 184v48h320v-48zm0 0" fill="#ff5023"/><path d="m152 232c0 17.671875-14.328125 32-32 32h-112v56c0 35.347656 28.652344 64 64 64h136c17.671875 0 32-14.328125 32-32v-120zm0 0" fill="#91dc5a"/><path d="m240 232v120c0 17.671875 14.328125 32 32 32h136c35.347656 0 64-28.652344 64-64v-88zm0 0" fill="#91dc5a"/><path d="m48 184h-40v80h112c17.671875 0 32-14.328125 32-32v-48zm0 0" fill="#5aaae7"/><path d="m88 32h28c6.628906 0 12-5.371094 12-12s-5.371094-12-12-12h-52s-40 176-48 176h32zm0 0" fill="#acabb1"/><path d="m424 8h-52c-6.628906 0-12 5.371094-12 12s5.371094 12 12 12h28l40 152h32c-8 0-48-176-48-176zm0 0" fill="#acabb1"/><path d="m424 344h16v16h-16zm0 0"/><path d="m400 344h16v16h-16zm0 0"/><path d="m424 320h16v16h-16zm0 0"/><path d="m48 200h16v16h-16zm0 0"/><path d="m24 224h16v16h-16zm0 0"/><path d="m24 200h16v16h-16zm0 0"/><path d="m479.433594 181.175781c-.058594-.152343-.105469-.304687-.167969-.457031-.367187-.804688-.867187-1.542969-1.480469-2.183594-.121094-.136718-.25-.238281-.378906-.359375-.191406-.203125-.394531-.394531-.605469-.574219-7.089843-12.800781-30.402343-106.976562-45.015625-171.386718-.832031-3.628906-4.058594-6.2070315-7.785156-6.214844h-52c-11.046875 0-20 8.953125-20 20s8.953125 20 20 20h21.832031l35.769531 136h-371.203124l35.792968-136h21.808594c11.046875 0 20-8.953125 20-20s-8.953125-20-20-20h-52c-3.734375 0-6.972656 2.582031-7.800781 6.222656-14.136719 62.210938-36.34375 152.175782-44.199219 169.777344h-4c-4.417969 0-8 3.582031-8 8v136c.0429688 39.746094 32.253906 71.957031 72 72h136c12.640625-.035156 24.511719-6.0625 32-16.246094 7.488281 10.183594 19.359375 16.210938 32 16.246094h136c39.746094-.042969 71.957031-32.253906 72-72v-136c-.015625-.96875-.207031-1.925781-.566406-2.824219zm-319.433594 42.824219v-32h304v32zm247.734375-194.039062c-.925781-3.511719-4.101563-5.960938-7.734375-5.960938h-28c-2.210938 0-4-1.789062-4-4s1.789062-4 4-4h45.601562c22.101563 96.855469 34.132813 140.414062 41.703126 160h-13.136719zm-337.335937-13.960938h45.601562c2.210938 0 4 1.789062 4 4s-1.789062 4-4 4h-28c-3.632812 0-6.808594 2.449219-7.734375 5.960938l-38.433594 146.039062h-13.152343c7.566406-19.585938 19.601562-63.144531 41.71875-160zm-54.398438 176h128v40c0 13.253906-10.746094 24-24 24h-104zm192 184h-136c-30.914062-.035156-55.964844-25.085938-56-56v-48h104c19-.023438 35.371094-13.386719 39.199219-32h72.800781v112c0 13.253906-10.746094 24-24 24zm256-56c-.035156 30.914062-25.085938 55.964844-56 56h-136c-13.253906 0-24-10.746094-24-24v-112h216zm0 0"/></svg>